<svg xmlns="http://www.w3.org/2000/svg" xml:space="preserve" viewBox="162.87 231.67 327.75 196.17"><style>.st0{fill:#99999a}.st1{fill:#fff}</style><g class="layer"><g id="svg_1"><path id="svg_21" d="M320.5 294c5.8 0 11.4.5 16.7 1.5l12.7-13.2c-8.9-3.1-18.9-4.8-29.4-4.8-17.9 0-34.2 5-46.3 13.1l11.1 10.5c10.2-4.5 22.3-7.1 35.2-7.1" class="st0"/><path id="svg_22" d="M320.5 277.4c10.6 0 20.5 1.7 29.4 4.8l13.8-14.4c-12.9-5.1-27.6-8-43.3-8-23.3 0-44.6 6.4-60.8 17l14.5 13.7c12.2-8.1 28.5-13.1 46.4-13.1" class="st1"/><path id="svg_23" d="M254.1 333.7c1.2-4.8 3.3-9.3 6.3-13.4l-5.6-5.6c-1.1 3.5-1.7 7.1-1.7 10.8 0 2.8.4 5.6 1 8.2" class="st0"/><path id="svg_24" d="m213 364.9-2.3 12.1 23.3-10c-1.5-3.1-1.8-7.1-2.6-10.4l-18.4 8.3z" class="st0"/><path id="svg_25" d="m196.6 233.1-33.7 184.4 15.9 1.3 33.4-187.1z" class="st0"/><path id="svg_26" fill="#e60012" d="M309.8 339.2v-14.9l-24.5-23.2-11.1-10.5-14.5-13.7-47.7-45.2-33.4 187.1 70.6-31c-7-6.2-12-12.8-15.7-20.6l-23 9.9 2.3-12.1 14.9-77.6 1.2-6.5 12.3 12.4 15.8 15.9 6.8 6.8 27.9 24-27.1 12.4c7 7 15.4 13.2 26.6 16.7l33.8-15.2-15.2-14.7z"/><path id="svg_27" d="M386.9 333.7c.7-2.7 1-5.5 1-8.3 0-8.3-3-16.2-8.3-23l-8 8.3c7.7 6.5 13.2 14.4 15.3 23" class="st0"/><path id="svg_28" d="m402 412.7-19-18.3c-3 2.1-6.3 4-9.7 5.8l28.7 27.6 88.6-92.3-.1-14.9-88.5 92.1z" class="st0"/><path id="svg_29" d="m337.5 350.7-15.7-15-12-11.4v14.9l16.9 16.2 16.1 15.5c4.1-1 8-2.3 11.7-3.8l-17-16.4z" class="st0"/><path id="svg_30" d="m399 267.3-12.6 13.1-13.9 14.5-9.5 9.9-17.9 18.7 7.5 7.2 19.1-19.9 8-8.3 14.7-15.3 4.6-4.9 48.7 46.7 7.6-7.8z" class="st0"/><path id="svg_31" d="m394.4 287.2-14.6 15.2c5.2 6.8 8.2 14.7 8.2 23 0 2.8-.4 5.6-1 8.3-1.7 7-5.5 13.5-11 19.1-5.6 5.8-12.9 10.6-21.5 14.1a84.3 84.3 0 0 1-11.7 3.8 93.1 93.1 0 0 1-22.2 2.7c-9.6 0-18.7-1.4-26.9-4-11.2-3.5-20.9-9.1-27.9-16.2-2.6-2.6-4.8-5.3-6.6-8.2a38.2 38.2 0 0 1-4.9-11.4c-.7-2.7-1-5.5-1-8.3 0-3.7.6-7.3 1.7-10.8l-16.8-17c-6.2 9.1-9.6 19.4-9.6 30.3a52.85 52.85 0 0 0 7.6 27c1.7 3 3.7 5.8 6 8.5 5.9 7.1 13.5 13.4 22.5 18.5 15.5 8.8 35 14.1 56.1 14.1 14.8 0 28.7-2.6 41.1-7.1 3.8-1.4 7.4-3 10.8-4.7 8-4 15-9 21-14.6 9.9-9.5 16.5-20.9 18.6-33.4.4-2.7.7-5.5.7-8.3-.3-15.1-7.2-29.2-18.6-40.6" class="st1"/><path id="svg_32" fill="#005bac" d="m337.4 350.8 16.9 16.2c8.5-3.6 15.9-8.3 21.5-14.1l-23.2-22.3-7.5-7.2 17.9-18.6 9.5-9.9 13.9-14.5 12.6-13.1 56.1 53.9-7.5 7.8-46 47.9c-4.8 6.6-11.1 12.5-18.5 17.6l18.9 18.2 88.6-92.2-92.4-88.5-34.5 36-13.8 14.4-12.7 13.3-27.3 28.6 27.5 26.5z"/><path id="svg_33" d="m259.4 345.6.5.8c1.4 2.2 3.2 4.1 5 6.1l27.6-12.7-63.3-59-1.7 9.1 49.7 49.2-17.8 6.5z" class="st0"/><path id="svg_34" d="M412.7 328c0 2.8-.3 5.6-.7 8.3-2 12.5-8.7 23.9-18.6 33.4-5.9 5.6-13 10.6-21 14.6-3.4 1.7-7 3.3-10.8 4.7-12.4 4.6-26.3 7.1-41.1 7.1-21.1 0-40.6-5.3-56.1-14.1-8.9-5.1-16.6-11.4-22.5-18.5a59.7 59.7 0 0 1-6-8.5c-3.4-5.9-5.8-12.2-6.9-18.7-.4-2.7-.7-5.5-.7-8.3 0-.9.1-1.8.1-2.6v-.2c-.5 2.7-.1 16.5-.1 19.3 0 4.4.6 8.8 1.7 13 .9 3.3 2 6.5 3.5 9.6 3.7 7.8 9.3 15 16.3 21.2 16.9 14.9 42.3 24.4 70.7 24.4 19.7 0 37.9-4.6 52.9-12.4 3.4-1.8 6.6-3.7 9.7-5.8 7.4-5.1 13.7-11.1 18.6-17.7 7-9.6 11-20.6 11-32.3 0-2.5.2-14.1 0-18.8-.1-.6 0 1.5 0 2.3" class="st0"/></g></g></svg>