<svg xmlns="http://www.w3.org/2000/svg" viewBox="46.8 34.1 135.3 160.8">
    <path style="-inkscape-font-specification:'Glacial Indifference Bold';-inkscape-stroke:none"
          d="M89 143v32l-32 90H28l49-122z" color="currentColor" fill="none" transform="translate(26 -72)"/>
    <path style="-inkscape-font-specification:'Glacial Indifference Bold';-inkscape-stroke:none"
          d="M76 141 25 267h33l33-92v-1h-4l-31 89H30l49-119h12v-3h-2z" color="currentColor" fill="currentColor"
          transform="translate(26 -72)"/>
    <path style="line-height:1.25;-inkscape-font-specification:'Glacial Indifference Bold';white-space:pre"
          d="M88 106c-11 0-23 2-33 8a69 69 0 0 0-25 93c15 26 46 39 74 33l-9-27H67a3 3 0 0 1-2-1l-21-37a3 3 0 0 1 0-3l21-37a3 3 0 0 1 2-1h43a3 3 0 0 1 3 1l21 37a3 3 0 0 1 0 3l-12 21 12 29c23-21 30-58 14-86a69 69 0 0 0-60-33Z"
          font-weight="700" font-size="192" font-family="Glacial Indifference" letter-spacing="0" word-spacing="0"
          fill="currentColor" transform="translate(26 -72)"/>
    <path style="-inkscape-font-specification:'Glacial Indifference Bold';-inkscape-stroke:none"
          d="M87 141v3h12l48 119h-25l-31-89h-4v1l33 92h33l-52-126Z" color="currentColor" fill="currentColor"
          transform="translate(26 -72)"/>
</svg>